<?xml version="1.0" encoding="UTF-8" standalone="no"?>
<svg
   version="1.0"
   width="48"
   height="48"
   viewBox="0 0 36 36"
   preserveAspectRatio="xMidYMid"
   id="svg4"
   sodipodi:docname="combo_auth_ico.svg"
   inkscape:version="1.4 (e7c3feb1, 2024-10-09)"
   xmlns:inkscape="http://www.inkscape.org/namespaces/inkscape"
   xmlns:sodipodi="http://sodipodi.sourceforge.net/DTD/sodipodi-0.dtd"
   xmlns="http://www.w3.org/2000/svg"
   xmlns:svg="http://www.w3.org/2000/svg">
  <defs
     id="defs4" />
  <sodipodi:namedview
     id="namedview4"
     pagecolor="#505050"
     bordercolor="#eeeeee"
     borderopacity="1"
     inkscape:showpageshadow="0"
     inkscape:pageopacity="0"
     inkscape:pagecheckerboard="0"
     inkscape:deskcolor="#505050"
     inkscape:document-units="pt"
     inkscape:zoom="3.6371559"
     inkscape:cx="12.097364"
     inkscape:cy="77.808048"
     inkscape:window-width="1512"
     inkscape:window-height="921"
     inkscape:window-x="0"
     inkscape:window-y="33"
     inkscape:window-maximized="0"
     inkscape:current-layer="svg4">
    <inkscape:page
       x="0"
       y="-8.5357611e-15"
       width="734.78558"
       height="1015.0086"
       id="page2"
       margin="0"
       bleed="0" />
  </sodipodi:namedview>
  <g
     transform="matrix(0.1,0,0,-0.1,-301.18298,1110.7087)"
     fill="#000000"
     stroke="none"
     id="g4">
    <path
       d="m 6450,11104 c -466,-43 -884,-201 -1256,-476 -133,-98 -374,-337 -472,-468 -279,-374 -432,-775 -472,-1235 -5,-68 -10,-436 -10,-852 v -732 l -158,-158 c -495,-495 -819,-1087 -986,-1803 -66,-283 -90,-541 -83,-883 6,-335 35,-533 122,-851 75,-276 239,-647 395,-896 413,-658 1033,-1181 1782,-1501 342,-146 716,-243 1078,-280 152,-16 525,-16 675,0 699,73 1419,381 1973,844 739,618 1221,1506 1312,2416 15,151 12,553 -5,711 -73,677 -354,1345 -804,1905 -110,137 -318,355 -420,440 l -70,58 -4,801 c -3,664 -7,819 -20,906 -69,457 -244,856 -523,1190 -79,96 -268,280 -361,353 -318,251 -744,436 -1135,492 -108,16 -459,28 -558,19 z m 517,-803 c 196,-41 412,-132 568,-236 384,-258 639,-653 699,-1082 12,-83 16,-228 18,-621 2,-281 0,-512 -3,-512 -3,0 -56,23 -117,50 -940,421 -2002,414 -2984,-20 -62,-28 -113,-50 -115,-50 -8,0 -2,960 7,1055 68,731 639,1320 1385,1431 129,19 422,11 542,-15 z m -57,-2661 c 392,-36 724,-127 1065,-295 832,-409 1466,-1193 1695,-2095 171,-676 95,-1352 -222,-1967 -471,-917 -1348,-1533 -2373,-1669 -180,-24 -563,-24 -735,0 -711,97 -1330,395 -1829,880 -476,464 -772,1038 -878,1701 -22,141 -25,631 -5,770 140,937 625,1710 1381,2200 199,129 476,260 716,338 179,59 475,119 665,136 139,12 388,12 520,1 z"
       id="path1" />
    <path
       d="m 6575,7291 c -27,-4 -65,-15 -82,-24 -64,-34 -63,-23 -63,-587 0,-280 -4,-510 -8,-510 -5,0 -60,38 -122,85 -61,47 -124,88 -139,92 -86,24 -192,-11 -242,-80 -23,-32 -29,-51 -29,-91 v -51 l 359,-357 360,-358 h 48 47 l 353,353 c 369,368 380,381 366,450 -3,16 -25,49 -47,72 -62,65 -144,85 -237,59 -9,-2 -70,-45 -135,-94 l -119,-89 -5,525 -5,526 -36,33 c -54,49 -133,63 -264,46 z"
       id="path2" />
    <path
       d="m 5480,5389 c -111,-22 -230,-110 -275,-205 -9,-20 -62,-211 -116,-423 -54,-212 -141,-550 -194,-751 -223,-849 -225,-855 -225,-966 0,-115 15,-176 67,-276 65,-124 191,-229 320,-264 65,-18 135,-19 1618,-19 h 1550 l 66,23 c 161,55 288,182 347,345 23,63 27,87 26,192 0,133 13,78 -205,880 -295,1082 -340,1240 -370,1287 -62,96 -160,159 -276,178 -32,6 -227,10 -433,10 h -375 l -89,-89 -89,-90 414,-3 c 396,-3 416,-4 460,-24 61,-29 112,-75 132,-121 9,-21 29,-101 46,-178 17,-77 58,-264 91,-415 159,-717 191,-875 186,-918 -8,-59 -38,-114 -87,-155 -83,-71 7,-67 -1404,-67 -1428,0 -1323,-6 -1414,76 -52,47 -81,108 -81,171 0,19 50,273 111,566 60,293 127,615 148,717 21,102 45,200 54,217 22,41 80,88 136,110 41,15 95,18 460,21 l 415,3 -90,90 -89,89 -395,-1 c -217,-1 -415,-5 -440,-10 z"
       id="path3" />
    <path
       d="m 6522,4933 c -7,-3 -77,-134 -154,-292 -260,-531 -478,-980 -478,-985 0,-2 7,-12 16,-20 12,-13 40,-16 142,-16 70,0 136,3 148,6 15,4 39,43 85,137 l 64,132 h 318 317 l 61,-130 c 33,-71 65,-133 72,-137 7,-4 74,-8 149,-8 111,0 140,3 152,16 9,8 16,18 16,21 0,7 -181,383 -419,868 -106,215 -199,396 -208,403 -17,12 -252,17 -281,5 z m 233,-549 c 50,-107 91,-201 93,-209 3,-13 -26,-15 -187,-15 -115,0 -191,4 -191,10 0,15 182,410 189,410 3,0 47,-88 96,-196 z"
       id="path4" />
  </g>
  <path
     style="fill:#f9f9f9;stroke:#827a91;stroke-width:3.298;stroke-dasharray:3.29801, 3.29801;paint-order:stroke fill markers"
     d="M 306.84252,1006.9902 C 182.40077,982.57519 69.479601,889.66107 25.430458,775.43779 -21.765774,653.05391 6.9784551,506.11646 97.623816,406.39304 l 24.369264,-26.80984 2.31071,-91.60026 c 2.08082,-82.48749 3.41228,-94.7573 13.38372,-123.33435 C 165.31118,85.482066 226.37319,29.793441 308.56243,8.8104506 432.41957,-22.810397 564.73927,59.262606 594.68737,186.28311 c 4.52257,19.18199 6.61605,53.35505 6.66135,108.74048 l 0.066,80.76769 11.7993,10.83257 c 46.93987,43.09406 92.44635,120.34431 108.79957,184.69417 10.91618,42.95503 11.97173,116.74252 2.25938,157.93567 -31.90545,135.32153 -147.02813,247.1388 -284.13881,275.98091 -33.91074,7.1334 -101.35388,8.0217 -133.29164,1.7556 z m 123.8479,-60.20133 c 104.9916,-21.25253 196.16482,-101.43465 230.99272,-203.14613 11.43765,-33.40222 12.94665,-43.93935 12.78315,-89.25877 -0.21315,-59.09636 -10.33365,-97.52906 -39.61327,-150.43286 -25.90425,-46.805 -84.38303,-102.59957 -131.9454,-125.88894 -51.0285,-24.98662 -81.96833,-32.19421 -138.31308,-32.22069 -53.74722,-0.0253 -86.01155,7.01751 -131.81501,28.773 C 153.07448,412.47235 98.190193,477.24598 69.552951,567.25204 54.677998,614.00365 55.434381,688.09879 71.286276,737.04762 119.90615,887.18022 275.78107,978.14584 430.69042,946.78887 Z M 250.29123,312.37114 c 90.61509,-30.3217 174.36576,-26.06603 267.76541,13.60612 7.83675,3.3287 8.16645,0.22154 6.70245,-63.16159 -1.49902,-64.89949 -1.9281,-67.45094 -16.22587,-96.47361 C 492.23099,133.25074 466.00919,107.19002 432.58586,90.861381 401.79404,75.818338 340.45241,73.708146 306.29276,86.516803 255.72056,105.47959 219.15247,145.51974 206.1167,196.20439 c -6.13837,23.86672 -10.22277,131.99331 -4.98595,131.99331 1.02493,0 23.14714,-7.12195 49.16048,-15.82656 z"
     id="path5" />
  <rect
     style="fill:#010101;fill-opacity:1;stroke:#9db5a8;stroke-width:1.33;stroke-dasharray:none;stroke-opacity:1;paint-order:stroke fill markers"
     id="rect1"
     width="35.169998"
     height="35.169998"
     x="0.41499925"
     y="0.41499925"
     ry="7.3854771"
     rx="0" />
  <path
     style="fill:#809ff9;fill-opacity:1;stroke:none;stroke-width:3.29802;stroke-dasharray:3.29802, 3.29802;paint-order:stroke fill markers"
     d="M 15.310429,11.639413 12.801194,9.106336 13.506987,8.525978 c 0.701612,-0.576925 0.711791,-0.576818 1.718762,0.01729 0.557131,0.328716 1.071949,0.597665 1.144037,0.597665 0.07209,0 0.132887,-1.298578 0.135111,-2.8857329 0.0048,-3.393007 0.160242,-4.1359272 0.915831,-4.3757447 1.162459,-0.3689458 1.743755,0.10922 1.745655,1.4359597 9.37e-4,0.6808693 0.08604,2.3201936 0.189021,3.6429504 l 0.187246,2.4050095 1.026543,-0.69663 c 1.024072,-0.694956 1.79494,-0.631024 2.302975,0.190994 0.170071,0.275181 -4.453932,5.314735 -4.876491,5.314735 -0.0968,0 -1.305171,-1.139883 -2.685248,-2.533077 z"
     id="path6" />
  <path
     style="fill:#a0f9ca;fill-opacity:1;stroke:none;stroke-width:3.29802;stroke-dasharray:3.29802, 3.29802;paint-order:stroke fill markers"
     d="M 6.696103,32.912392 C 5.7203326,32.306811 4.9579111,31.040451 4.9579111,30.025315 c 0,-0.42807 0.6100886,-3.137871 1.3557506,-6.021779 2.6408663,-10.213782 2.1776913,-9.535075 6.5071013,-9.535075 2.319517,0 3.10072,0.102484 3.38412,0.44396 0.3231,0.389314 0.02353,0.443961 -2.433659,0.443961 -2.381041,0 -2.878893,0.08485 -3.313094,0.56463 -0.320004,0.353598 -0.903759,2.477127 -1.561886,5.68166 l -1.050905,5.11703 0.792589,0.681756 c 0.787124,0.677059 0.850465,0.68176 9.192041,0.68176 4.678025,0 8.732163,-0.126501 9.150388,-0.285507 0.413014,-0.15703 0.829039,-0.596688 0.924494,-0.977025 0.239086,-0.952594 -1.833427,-10.271907 -2.431262,-10.932517 -0.39856,-0.440401 -0.962811,-0.531787 -3.283377,-0.531787 -2.457205,0 -2.756755,-0.05465 -2.433656,-0.443961 0.283397,-0.341473 1.0646,-0.44396 3.38412,-0.44396 4.305489,0 3.819189,-0.690409 6.5169,9.252183 1.431171,5.274673 1.627574,7.084484 0.884024,8.146052 -1.051835,1.501704 -1.404336,1.54461 -12.620176,1.536156 -9.13422,-0.0069 -10.545503,-0.06855 -11.225321,-0.49046 z"
     id="path7" />
  <path
     style="fill:#74f969;fill-opacity:1;stroke:none;stroke-width:3.29802;stroke-dasharray:3.29802, 3.29802;paint-order:stroke fill markers"
     d="m 13.245154,25.718232 c 0,-0.161248 0.896729,-2.092472 1.992738,-4.29161 1.856934,-3.725944 2.049953,-3.99843 2.832342,-3.99843 0.787037,0 0.958758,0.250767 2.742827,4.005368 1.046772,2.202953 1.903224,4.134177 1.903224,4.291608 0,0.15743 -0.319815,0.286238 -0.710699,0.286238 -0.49849,0 -0.893193,-0.309313 -1.321895,-1.035908 -0.605089,-1.025553 -0.631711,-1.035905 -2.663756,-1.035905 -2.032045,0 -2.058664,0.0104 -2.663756,1.035905 -0.442811,0.750513 -0.817801,1.035908 -1.361113,1.035908 -0.412451,0 -0.749912,-0.131933 -0.749912,-0.293174 z m 5.567621,-4.738367 C 18.474523,20.165939 18.108773,19.5 18,19.5 c -0.108778,0 -0.479124,0.665939 -0.822995,1.479865 l -0.625226,1.479865 h 1.438001 1.437999 z"
     id="path8" />
</svg>
